<?xml version="1.0" standalone="no"?>
<!DOCTYPE svg PUBLIC "-//W3C//DTD SVG 20010904//EN"
 "http://www.w3.org/TR/2001/REC-SVG-20010904/DTD/svg10.dtd">
<svg version="1.0" xmlns="http://www.w3.org/2000/svg"
 width="512.000000pt" height="512.000000pt" viewBox="0 0 512.000000 512.000000"
 preserveAspectRatio="xMidYMid meet">
<metadata>
Created by potrace 1.11, written by Peter Selinger 2001-2013
</metadata>
<g transform="translate(0.000000,512.000000) scale(0.100000,-0.100000)"
fill="#000000" stroke="none">
<path d="M2320 5044 c-437 -52 -796 -181 -1141 -409 -494 -328 -854 -828
-1014 -1410 -67 -246 -80 -348 -80 -655 0 -307 13 -409 80 -655 160 -582 520
-1082 1014 -1410 247 -163 481 -267 766 -340 236 -60 321 -70 615 -70 294 0
379 10 615 70 872 224 1542 882 1780 1750 67 246 80 348 80 655 0 307 -13 409
-80 655 -160 582 -520 1082 -1014 1410 -301 198 -609 321 -976 386 -97 17
-168 22 -365 24 -135 2 -261 1 -280 -1z m310 -1260 l25 -24 3 -550 2 -550 463
0 c254 0 480 -5 502 -10 52 -12 75 -41 75 -95 0 -54 -23 -83 -75 -95 -22 -5
-248 -10 -502 -10 l-463 0 -2 -550 -3 -550 -27 -26 c-37 -37 -99 -37 -136 0
l-27 26 -3 550 -3 550 -462 0 c-254 0 -480 5 -502 10 -52 12 -75 41 -75 95 0
54 23 83 75 95 22 5 248 10 502 10 l463 0 2 544 c3 535 3 545 24 573 36 48 98
51 144 7z"/>
</g>
</svg>
